{"accessors" : [{"bufferView" : 0, "byteOffset" : 0, "componentType" : 5123, "count" : 12522, "type" : "SCALAR", "max" : [10496], "min" : [0]}, {"bufferView" : 1, "byteOffset" : 0, "componentType" : 5126, "count" : 10497, "type" : "VEC3", "max" : [1.3479706048965454, 3.7007153034210205, 1.327445387840271], "min" : [-1.1702789068222046, 0, -1.3274452686309814], "name" : "POSITION"}, {"bufferView" : 1, "byteOffset" : 12, "componentType" : 5126, "count" : 10497, "type" : "VEC4", "max" : [0.9959754943847656, 0.9995494484901428, 0.9996393322944641, 0], "min" : [-0.9994282722473145, -0.9980487823486328, -1.0000042915344238, 0], "name" : "TANGENT"}, {"bufferView" : 1, "byteOffset" : 28, "componentType" : 5126, "count" : 10497, "type" : "VEC3", "max" : [0.9999069571495056, 0.9999982118606567, 0.9988705515861511], "min" : [-0.9998612403869629, -0.9967613220214844, -0.9988603591918945], "name" : "NORMAL"}, {"bufferView" : 1, "byteOffset" : 40, "componentType" : 5126, "count" : 10497, "type" : "VEC2", "max" : [0.9876112341880798, 0.9888064861297607], "min" : [0.01501967292279005, 0.012524545192718506], "name" : "TEXCOORD_0"}], "asset" : {"generator" : "Aspose.3D 22.7", "version" : "2.0"}, "buffers" : [{"uri" : "data:application/octet-stream;base64,", "byteLength" : 626108}], "bufferViews" : [{"buffer" : 0, "byteOffset" : 0, "byteLength" : 25044, "target" : 34963}, {"buffer" : 0, "byteOffset" : 25048, "byteLength" : 601056, "byteStride" : 48, "target" : 34962}], "images" : [{"uri" : "data:image/png;base64,"}, {"uri" : "data:image/png;base64,"}, {"uri" : "data:image/png;base64,"}], "materials" : [{"pbrMetallicRoughness" : {"baseColorFactor" : [1, 1, 1, 1], "baseColorTexture" : {"index" : 1, "texCoord" : 0}, "metallicFactor" : 1, "roughnessFactor" : 1, "metallicRoughnessTexture" : {"index" : 2, "texCoord" : 0}}, "occlusionTexture" : {"index" : 0, "texCoord" : 0, "strength" : 0}, "emissiveFactor" : [0, 0, 0], "alphaMode" : "OPAQUE", "doubleSided" : false}], "meshes" : [{"primitives" : [{"attributes" : {"POSITION" : 1, "TANGENT" : 2, "NORMAL" : 3, "TEXCOORD_0" : 4}, "indices" : 0, "material" : 0, "mode" : 4}]}], "nodes" : [{"mesh" : 0, "name" : "Fire"}], "samplers" : [{"magFilter" : 9729, "minFilter" : 9987, "wrapS" : 10497, "wrapT" : 10497}, {"magFilter" : 9729, "minFilter" : 9987, "wrapS" : 10497, "wrapT" : 10497}, {"magFilter" : 9729, "minFilter" : 9987, "wrapS" : 10497, "wrapT" : 10497}], "scene" : 0, "scenes" : [{"nodes" : [0]}], "textures" : [{"sampler" : 0, "source" : 0, "name" : ""}, {"sampler" : 1, "source" : 1, "name" : ""}, {"sampler" : 2, "source" : 2, "name" : ""}]}